<svg width="275" height="328" viewBox="0 0 275 328" fill="none" xmlns="http://www.w3.org/2000/svg">
<path d="M82.4439 196.82C69.5825 196.82 58.9052 194.029 50.4119 188.448C41.9185 182.867 35.5485 175.041 31.3019 164.97C27.1765 154.899 25.1139 143.13 25.1139 129.662C25.1139 116.194 27.1765 104.485 31.3019 94.536C35.5485 84.5867 41.9185 76.882 50.4119 71.422C59.0265 65.8407 69.7645 63.05 82.6259 63.05C94.8805 63.05 105.194 65.8407 113.566 71.422C122.059 76.882 128.49 84.6473 132.858 94.718C137.347 104.667 139.592 116.376 139.592 129.844C139.592 143.312 137.347 155.081 132.858 165.152C128.49 175.101 122.059 182.867 113.566 188.448C105.073 194.029 94.6985 196.82 82.4439 196.82ZM82.4439 186.992C89.2385 186.992 94.9412 185.718 99.5519 183.17C104.284 180.622 108.106 176.921 111.018 172.068C113.93 167.093 116.053 161.087 117.388 154.05C118.723 146.891 119.39 138.823 119.39 129.844C119.39 120.865 118.723 112.857 117.388 105.82C116.053 98.7827 113.93 92.8373 111.018 87.984C108.227 83.0093 104.466 79.248 99.7339 76.7C95.1232 74.152 89.4205 72.878 82.6259 72.878C75.8312 72.878 70.0679 74.152 65.3359 76.7C60.6039 79.248 56.7212 83.0093 53.6879 87.984C50.7759 92.8373 48.6525 98.7827 47.3179 105.82C45.9832 112.857 45.3159 120.865 45.3159 129.844C45.3159 138.823 45.9832 146.891 47.3179 154.05C48.6525 161.087 50.7759 167.093 53.6879 172.068C56.7212 176.921 60.6039 180.622 65.3359 183.17C70.0679 185.718 75.7705 186.992 82.4439 186.992Z" fill="#6FF6FE"/>
<path d="M137.596 256V248.356H139.962C142.752 248.356 145.24 248.053 147.424 247.446C149.729 246.839 151.549 245.626 152.884 243.806C154.218 241.865 154.886 239.013 154.886 235.252V146.072C154.886 142.432 154.158 139.763 152.702 138.064C151.367 136.244 149.547 135.091 147.242 134.606C145.058 133.999 142.631 133.696 139.962 133.696H137.596V126.052H190.558V133.696H188.192C185.522 133.696 183.035 133.999 180.73 134.606C178.424 135.213 176.604 136.426 175.27 138.246C173.935 140.066 173.268 142.917 173.268 146.8V183.564H232.418V146.8C232.418 142.917 231.75 140.066 230.416 138.246C229.081 136.426 227.261 135.213 224.956 134.606C222.772 133.999 220.284 133.696 217.494 133.696H215.128V126.052H268.09V133.696H265.724C263.054 133.696 260.567 133.999 258.262 134.606C255.956 135.213 254.136 136.426 252.802 138.246C251.467 140.066 250.8 142.917 250.8 146.8V236.162C250.8 239.681 251.467 242.35 252.802 244.17C254.258 245.869 256.078 247.021 258.262 247.628C260.567 248.113 263.054 248.356 265.724 248.356H268.09V256H215.128V248.356H217.494C220.284 248.356 222.772 248.053 224.956 247.446C227.261 246.839 229.081 245.626 230.416 243.806C231.75 241.865 232.418 239.013 232.418 235.252V192.664H173.268V235.252C173.268 239.013 173.935 241.865 175.27 243.806C176.604 245.626 178.424 246.839 180.73 247.446C183.035 248.053 185.522 248.356 188.192 248.356H190.558V256H137.596Z" fill="#77FFEF"/>
</svg>
